<svg id="Capa_1" data-name="Capa 1" xmlns="http://www.w3.org/2000/svg" viewBox="0 0 278.24 400.2"><defs><style>.cls-1{fill:#ec7721;}.cls-2{fill:#fff;}.cls-3,.cls-7{fill:#0a7bc0;}.cls-4{font-size:52.64px;}.cls-15,.cls-18,.cls-4,.cls-8{fill:#1d1d1b;font-family:Rubik-Regular, Rubik;}.cls-5{letter-spacing:0em;}.cls-6{letter-spacing:-0.01em;}.cls-7{letter-spacing:-0.02em;}.cls-8{font-size:30.26px;}.cls-9{letter-spacing:-0.01em;}.cls-10{letter-spacing:-0.01em;}.cls-11{letter-spacing:0em;}.cls-12{letter-spacing:0em;}.cls-13{letter-spacing:-0.01em;}.cls-14{letter-spacing:-0.05em;}.cls-15{font-size:23.96px;}.cls-16{letter-spacing:-0.02em;}.cls-17{letter-spacing:0em;}.cls-18{font-size:19.45px;}.cls-19{letter-spacing:-0.04em;}.cls-20{letter-spacing:-0.01em;}.cls-21{letter-spacing:0em;}.cls-22{letter-spacing:0em;}.cls-23{letter-spacing:-0.01em;}</style></defs><rect class="cls-1" x="2.72" y="0.45" width="131.19" height="131.19" rx="16.16"/><path class="cls-2" d="M111.08,50A34.4,34.4,0,0,0,100.62,28.1a35.61,35.61,0,0,0-21.9-10.25c-1.13-.09-2.26-.14-3.36-.14-9.91,0-18.53,3.8-25.65,11.3-6.63,7-10.1,15.39-10,24.28.07,8.35,4.45,16.82,7.74,22.47,1.15,2,2.44,4,3.82,6.22l1.92,3.07c2,3.24,3.84,6.45,4.24,10a21.15,21.15,0,0,1-.06,3.44,16.73,16.73,0,0,0,.07,4.55,6,6,0,0,0,1.91,3c.32.32.64.66,1,1a5.56,5.56,0,0,0,.48,4.86,6,6,0,0,0,0,6,5.52,5.52,0,0,0-.19,5.35,6,6,0,0,0,5.51,3h0a9.94,9.94,0,0,0,1.2-.08c0,.26,0,.53,0,.79,0,1.54,0,3.3,1.6,4.6S73.94,133,75,133c3.51,0,7.6-.88,8.53-3.36a5,5,0,0,0,.19-2.82c0-.18,0-.35-.07-.54a8.31,8.31,0,0,0,1.21.09,6.06,6.06,0,0,0,5.67-3.24,5,5,0,0,0-.44-4.9,6.29,6.29,0,0,0,.87-3.81,4.15,4.15,0,0,0-.8-2.33,6.09,6.09,0,0,0,.59-4.75A10.14,10.14,0,0,1,92,105.64a6,6,0,0,0,1.63-2.86,15.29,15.29,0,0,0,.09-4.85,16.63,16.63,0,0,1-.08-3.14c.42-3.75,2.47-7.35,4-9.73.76-1.21,1.52-2.37,2.24-3.49a80.09,80.09,0,0,0,7.91-14.36C109.67,62.49,111.66,57.6,111.08,50ZM79.49,128a9.64,9.64,0,0,1-3.82.59,14.78,14.78,0,0,1-4.06-.5,3.87,3.87,0,0,1,0-1.76,6.11,6.11,0,0,1,2.49-.38c.6,0,1.25,0,1.88.06s1.31.06,1.94.06c.43,0,.8,0,1.15,0C79.42,126.24,79.55,126.85,79.49,128Zm7.22-6.66a14.46,14.46,0,0,1-5.25.71c-1,0-1.95,0-3-.06s-2.22-.06-3.34-.06c-.62,0-1.41,0-2.32.08-1.15.06-2.45.12-3.71.12-4.56,0-4.86-.9-4.88-1.08a.55.55,0,0,1,.14-.44c.32-.34,1.3-.76,4.12-.76,1,0,2,.05,3,.09.83,0,1.62.08,2.28.08H80c.7,0,1.41,0,2.09,0s1.27,0,1.85,0c1.58,0,2.52.18,2.76.54A1.1,1.1,0,0,1,86.71,121.37Zm0-5.81a23.28,23.28,0,0,1-5.5.49c-1,0-2,0-3,0S76,116,74.84,116c-.6,0-1.37,0-2.26.09-1.13.06-2.41.13-3.66.13-3.3,0-4.28-.53-4.57-.84a.45.45,0,0,1-.14-.41c0-.32.48-1,4.36-1,1,0,2,0,3.05.09s1.7.07,2.4.07h6c.72,0,1.43,0,2.12,0s1.24,0,1.81,0,2.39,0,2.78.56A1.3,1.3,0,0,1,86.73,115.56Zm.11-6.14c-.37.44-1,.63-2.23.63-.4,0-.82,0-1.26,0s-.95-.05-1.43-.05H75.11c-.63,0-1.43.05-2.36.1-1.17.06-2.49.13-3.76.13-3.18,0-4.28-.46-4.64-.85a.45.45,0,0,1-.14-.41c0-.69,1.52-1.09,4-1.09,1.08,0,2.23.07,3.24.12.84.05,1.63.1,2.26.1,1.38,0,2.68,0,3.91,0l3.08,0a42.56,42.56,0,0,1,5.84.29C86.82,108.47,86.85,109,86.84,109.42ZM107,55.11c-.45,4.75-2.67,10.86-6.45,17.67-1.13,2-2.49,4-3.81,6-3.39,5-6.89,10.13-7.46,17a28.12,28.12,0,0,0,0,3c0,2,.11,4.16-.75,4.81-.38.29-1.51.63-4.74.63-1.52,0-3.14-.07-4.72-.14-1.36-.06-2.64-.11-3.67-.11-.75,0-1.72,0-2.85.08-1.41,0-3,.11-4.57.11-4.39,0-5.4-.54-5.63-.77-.47-.47-.57-2.92-.65-4.71,0-1.1-.09-2.23-.2-3.25-.72-6.44-2.72-9.41-5-12.86-.53-.78-1.07-1.59-1.62-2.47-1.55-2.47-3-5.1-4.34-7.59-2.59-4.8-5.82-10.77-6.44-16.86-1.43-13.95,7.36-23,10.08-25.47a32.47,32.47,0,0,1,21.13-8c.66,0,1.33,0,2,.07a31.82,31.82,0,0,1,20.74,9C100.38,33.65,108.17,42.51,107,55.11Z" transform="translate(-7.11 -9.29)"/><path class="cls-2" d="M87.42,64.34H87.2a5.63,5.63,0,0,0-2.81,1.09,6,6,0,0,1-2.92,1.12,3.4,3.4,0,0,1-.45,0c0-.1.08-.2.13-.3a4.31,4.31,0,0,0,.48-1.89c0-2.31-1.65-3.73-3.1-3.73-1.24,0-2.21.92-2.6,2.46a4.8,4.8,0,0,0,.47,3.46A6.84,6.84,0,0,1,75,66.46a6.45,6.45,0,0,0,.37-4.24,2.47,2.47,0,0,0-1.68-1.67,2.69,2.69,0,0,0-3.09,1.37,5.29,5.29,0,0,0-.35,4.26,3.19,3.19,0,0,1-1.38.31A8.17,8.17,0,0,1,65,65c-.33-.19-.64-.38-1-.54a.81.81,0,0,0-1.2.6,10.13,10.13,0,0,0,1.09,5.12c.22.53.42,1,.58,1.52.69,2,1.36,4.15,2,6.18s1.36,4.22,2.08,6.36c.13.4.24.86.36,1.36.4,1.68.9,3.79,2.83,4.58a.79.79,0,0,0,.76-.07.83.83,0,0,0,.37-.68,21.16,21.16,0,0,0-2-7.75c-.37-.94-.76-1.91-1.07-2.86-.51-1.55-1-3.17-1.44-4.74S67.51,70.9,67,69.34l.21,0a7.52,7.52,0,0,0,1.93.14A5.75,5.75,0,0,0,70.85,69a3.71,3.71,0,0,1,1.22-.34h0a3.24,3.24,0,0,1,1.3.46,5,5,0,0,0,2,.63,4.31,4.31,0,0,0,1.91-.47A3.47,3.47,0,0,1,78.4,69a8.55,8.55,0,0,1,2.06.23,11.21,11.21,0,0,0,2.18.27,4.57,4.57,0,0,0,.92-.08c-.45,1.4-.91,2.8-1.36,4.17-.54,1.62-1.09,3.29-1.62,5-.29.92-.62,1.85-.94,2.75a32.93,32.93,0,0,0-2.1,8.06.84.84,0,0,0,.3.71.88.88,0,0,0,.52.18.85.85,0,0,0,.23,0c1.94-.58,2.66-3,3.23-5,.11-.36.21-.7.31-1,.83-2.49,1.65-5.17,2.45-7.78,1.13-3.69,2.3-7.51,3.54-11a.81.81,0,0,0-.7-1.09Z" transform="translate(-7.11 -9.29)"/><rect class="cls-3" x="145.98" width="131.19" height="131.19" rx="16.16"/><path class="cls-2" d="M168.21,39.1H194a8.34,8.34,0,0,1,0-1.47,2.21,2.21,0,0,1,2.2-2h4.16a26.06,26.06,0,0,0,0-3.29c0-.64,0-1.34,0-2.19-.9,0-1.84,0-2.75.08s-2.09.07-3.1.07c-2.56,0-9.34,0-9.62-6.39-.12-2.68,2.06-6.21,5.15-6.93a12.71,12.71,0,0,1,2.9-.28c.91,0,1.83.05,2.81.11s2,.11,2.92.11H215c.68,0,1.43,0,2.23-.07s1.69-.07,2.52-.07a10.87,10.87,0,0,1,3.9.53c3,1.12,4.09,4.47,4.15,5.92a6.3,6.3,0,0,1-1.62,4.82c-1.91,2-5,2.26-7.86,2.26h0c-1,0-2.07,0-3.09-.07s-2-.07-2.94-.08v5.47h4.19a2.21,2.21,0,0,1,2.21,2.22v1.3q1.33,0,2.79,0c2.62,0,5.18-.08,7.66-.15s4.69-.13,7-.13c2.12,0,4,.06,5.65.18a28.12,28.12,0,0,1,17.43,7.72A27.12,27.12,0,0,1,267.42,64a100,100,0,0,1,.05,12.5c-.11,3.22-.23,6.53-.13,9.86h.1c.35,0,.72,0,1.09,0a8.31,8.31,0,0,1,.91,0,2.23,2.23,0,0,1,1.93,2.2V93.5a2.21,2.21,0,0,1-2.22,2.22H235.92a2.21,2.21,0,0,1-2.22-2.22V88.58a2.21,2.21,0,0,1,2.22-2.21h1.53c-.06-2,.07-4.18.19-6.31.25-4.25.59-10.09-1.31-10.84a8.3,8.3,0,0,0-2.84-.36c-1,0-2,.06-3.1.13s-2.25.14-3.34.14h-8.39c0,.18,0,.34,0,.48a15,15,0,0,1,0,2.22,2.21,2.21,0,0,1-2.2,2H196.28a2.21,2.21,0,0,1-2.22-2.22V69.13H168.21A2.21,2.21,0,0,1,166,66.92V41.31A2.21,2.21,0,0,1,168.21,39.1Z" transform="translate(-7.11 -9.29)"/><path class="cls-2" d="M244,111.19c.58-.82,1.14-1.6,1.62-2.36a56.73,56.73,0,0,0,4.74-9,2.22,2.22,0,0,1,1.59-1.34,2.48,2.48,0,0,1,.54-.06,2.35,2.35,0,0,1,2.3,1.79,75.4,75.4,0,0,0,6.84,12.23c.2.29.41.57.63.87a11.36,11.36,0,0,1,2.16,4,12.94,12.94,0,0,1-1.65,10.29,11.75,11.75,0,0,1-7.76,5.22,12,12,0,0,1-2.16.19h0a13,13,0,0,1-10.07-4.76,12.16,12.16,0,0,1-2.37-10.38C240.91,115.49,242.48,113.3,244,111.19Z" transform="translate(-7.11 -9.29)"/><rect class="cls-3" x="2.72" y="143.79" width="131.19" height="131.19" rx="16.16"/><polygon class="cls-2" points="122.92 208.87 118.86 206.31 111.03 206.32 116.26 198.73 113.68 196.94 107.2 206.32 95.31 206.34 98.96 201.1 96.38 199.31 91.48 206.35 73.87 206.38 79.65 200.58 88.77 201.91 89.22 198.8 82.42 197.81 89.7 190.5 101.84 192.49 102.35 189.39 92.43 187.76 100.49 179.68 112.16 181.59 112.67 178.49 103.22 176.94 105.63 174.52 106.55 170.7 102.29 171.19 99.9 173.59 98.52 164.85 95.41 165.34 97.16 176.34 89.51 184.01 88.2 175.75 85.1 176.25 86.76 186.77 79.51 194.04 78.58 188.32 75.48 188.82 76.6 196.79 70.21 203.04 70.21 184.67 77.81 179.52 75.94 176.94 70.21 180.85 70.21 171.54 80.67 164.68 78.85 162.06 70.21 167.77 70.21 158.07 67.78 154.6 65.49 158.07 65.49 167.67 57.92 162.28 56.04 164.85 65.49 171.5 65.49 180.85 60.01 176.94 58.14 179.52 65.49 184.67 65.49 203.06 59.09 196.51 60.91 188.35 57.88 187.7 56.59 193.87 49.82 187.12 52.34 176.27 49.28 175.56 47.21 184.5 39.47 176.78 42.13 165.27 39.06 164.56 36.84 174.17 33.96 171.29 30.21 171.03 30.64 174.63 33.03 177.02 24.54 177.8 24.83 180.93 35.92 179.91 43.99 187.95 34.76 188.8 35.05 191.93 46.89 190.83 53.11 197.03 46.77 197.65 47.08 200.77 55.99 199.91 62.49 206.39 45.86 206.42 40.98 199.31 38.39 201.09 42.05 206.42 31.43 206.44 24.88 196.94 22.3 198.73 27.62 206.44 17.51 206.46 13.71 208.68 17.52 211.17 27.77 211.16 21.99 219.74 24.6 221.5 31.56 211.15 42.5 211.14 38.34 217.11 40.92 218.91 46.33 211.13 62.5 211.11 56.9 216.72 48.52 215.69 48.13 218.81 54.09 219.54 47.32 226.33 34.88 224.59 34.44 227.7 44.54 229.12 36.34 237.34 24.82 235.73 24.38 238.84 33.57 240.13 30.74 242.96 30.54 246.58 34.08 246.29 37.2 243.15 38.84 252.14 41.93 251.58 39.91 240.44 47.43 232.9 48.9 241.01 52 240.44 50.13 230.19 57.8 222.5 59.02 229.05 62.11 228.47 60.33 219.79 65.49 214.44 65.49 232.16 58.22 237.3 59.92 239.89 65.49 235.98 65.49 246.12 55.33 252.97 56.98 255.59 65.49 249.89 65.49 259.41 67.78 263.08 70.21 259.41 70.21 250.04 78.08 255.43 79.8 252.86 70.21 246.2 70.21 235.98 76.03 239.89 77.73 237.3 70.21 232.16 70.21 214.42 76.33 220.36 74.91 229.15 78.05 229.68 79.21 223.08 86.3 230.14 84.13 241.66 87.22 242.25 89 232.82 96.96 240.75 94.79 252.24 97.88 252.82 99.65 243.44 102.41 246.19 106.09 246.97 105.74 242.85 103.06 240.18 111.85 239 111.43 235.89 100.25 237.38 92.44 229.6 101.2 228.43 100.78 225.31 89.64 226.8 82.92 220.1 88.83 219.29 88.41 216.18 80.13 217.32 73.88 211.09 90.94 211.06 96.32 218.9 98.91 217.12 94.75 211.06 106.92 211.04 113.96 221.5 116.57 219.74 110.71 211.03 118.86 211.02 122.92 208.87"/><rect class="cls-1" x="145.96" y="143.32" width="131.19" height="131.19" rx="16.16"/><path class="cls-2" d="M253,202c-.34,0-.57,0-.79.06-3.06.55-4.65-.62-6.1-3.57a32.44,32.44,0,0,0-33.44-17.91,33.18,33.18,0,0,0-28.74,26.34c-3.84,17.8,8.32,36.13,26.21,39.4,1.3.24,1.61.71,1.52,1.87s0,2.15,0,3.44a36.56,36.56,0,0,1-19.08-8.11,37,37,0,0,1-13.82-23.73,38.23,38.23,0,0,1,32.1-44.08C231.52,172.54,248.43,186.17,253,202Z" transform="translate(-7.11 -9.29)"/><path class="cls-2" d="M260.21,223.2v24.49l-16.5-2V224.93Z" transform="translate(-7.11 -9.29)"/><path class="cls-2" d="M240.4,225.28v20l-14.88-1.8V226.83Z" transform="translate(-7.11 -9.29)"/><path class="cls-2" d="M273.64,221.81v27.51l-10-1.23V222.83Z" transform="translate(-7.11 -9.29)"/><path class="cls-2" d="M260.31,219.93l-16.67,1.73c0-4.32,0-8.42.05-12.52,0-.32.69-.81,1.12-.89,4.42-.86,8.85-1.64,13.28-2.44a3.07,3.07,0,0,0,1-.25c1-.63,1.23-.08,1.23.77C260.31,210.79,260.31,215.24,260.31,219.93Z" transform="translate(-7.11 -9.29)"/><path class="cls-2" d="M240.41,209v13l-14.88,1.6V211.73Z" transform="translate(-7.11 -9.29)"/><path class="cls-2" d="M243.64,248.94l16.51,2v10.84c-4.1-.74-8.17-1.45-12.23-2.22-1.42-.27-3.33-.28-4.07-1.18s-.2-2.73-.21-4.16C243.63,252.56,243.64,250.91,243.64,248.94Z" transform="translate(-7.11 -9.29)"/><path class="cls-2" d="M273.64,218.49l-10,1.09V204.85l10-1.85Z" transform="translate(-7.11 -9.29)"/><path class="cls-2" d="M240.34,258.18l-14.83-2.69v-8.77l14.83,1.81Z" transform="translate(-7.11 -9.29)"/><path class="cls-2" d="M263.61,262.4v-11l10,1.2v11.63Z" transform="translate(-7.11 -9.29)"/><path class="cls-2" d="M222.11,227.21V243l-7.34-.86v-9.43c0-1.09.07-2.18,0-3.26-.11-1.29.4-1.66,1.65-1.7C218.26,227.7,220.11,227.42,222.11,227.21Z" transform="translate(-7.11 -9.29)"/><path class="cls-2" d="M214.9,213.67l7.19-1.32V223.9l-7.19.82Z" transform="translate(-7.11 -9.29)"/><path class="cls-2" d="M224.86,257.58,219.28,270c-2.17-4.27-4.19-8.28-6.3-12.45Z" transform="translate(-7.11 -9.29)"/><path class="cls-2" d="M249.28,186.73l-8.17-8.49,12.51-4.8Z" transform="translate(-7.11 -9.29)"/><path class="cls-2" d="M181.89,254.61c1.5-4.56,2.89-8.81,4.37-13.32l8,8.57Z" transform="translate(-7.11 -9.29)"/><path class="cls-2" d="M176.17,222.91l-12.47-5.55,12.47-6.31Z" transform="translate(-7.11 -9.29)"/><path class="cls-2" d="M215.11,159.92l6.09,12.45H209.37Z" transform="translate(-7.11 -9.29)"/><path class="cls-2" d="M190.2,182.45,182,190.82l-4.81-12.63Z" transform="translate(-7.11 -9.29)"/><path class="cls-2" d="M222.17,246.34v8.54l-7.31-1.33v-8.1Z" transform="translate(-7.11 -9.29)"/><text class="cls-4" transform="translate(0 318.6)">in<tspan class="cls-5" x="44.64" y="0">s</tspan><tspan x="71.43" y="0">t</tspan><tspan class="cls-1" x="92.01" y="0">el</tspan><tspan class="cls-6" x="134.28" y="0">f</tspan><tspan x="154.03" y="0">on</tspan><tspan class="cls-3" x="216.14" y="0">ai</tspan><tspan class="cls-7" x="257.94" y="0">r</tspan></text><text class="cls-8" transform="translate(1.12 371.41)">i<tspan class="cls-9" x="7.32" y="0">n</tspan><tspan class="cls-10" x="25.41" y="0">f</tspan><tspan x="36.76" y="0">o@in</tspan><tspan class="cls-11" x="104.96" y="0">s</tspan><tspan class="cls-12" x="120.36" y="0">tel</tspan><tspan class="cls-13" x="156.48" y="0">f</tspan><tspan x="167.83" y="0">onai</tspan><tspan class="cls-14" x="227.55" y="0">r</tspan><tspan class="cls-13" x="237.42" y="0">.</tspan><tspan x="244.74" y="0">es</tspan></text><text class="cls-15" transform="translate(1.53 341.94)">971365<tspan class="cls-16" x="79.82" y="0">6</tspan><tspan class="cls-17" x="93.69" y="0">11 / 636 668 901</tspan></text><text class="cls-18" transform="translate(3.14 394.92)">ww<tspan class="cls-19" x="31.2" y="0">w</tspan><tspan class="cls-20" x="46.02" y="0">.</tspan><tspan class="cls-21" x="50.73" y="0">electrici</tspan><tspan class="cls-22" x="123.13" y="0">s</tspan><tspan x="133.03" y="0">tameno</tspan><tspan class="cls-20" x="202.51" y="0">r</tspan><tspan x="209.71" y="0">ca</tspan><tspan class="cls-23" x="231.19" y="0">.</tspan><tspan x="235.89" y="0">com</tspan></text></svg>